# xmcd
#
# Track frame offsets:
#	150
#	15917
#	29176
#	41914
#	55204
#	68909
#	83147
#	97253
#	112420
#	128446
#	143471
#	158196
#	168219
#	182766
#	192114
#	208250
#	219038
#	235406
#	249929
#	267668
#	281559
#	297887
#	307443
#	322092
#	334395
#
# Disc length: 4637 seconds
#
# Revision: 0
# Processed by: cddbd v1.5.2PL0 Copyright (c) Steve Scherf et al.
# Submitted via: FairStars CD Ripper 1.80
#
DISCID=85121b19
DTITLE=Edith Piaf - Magic of Edith Piaf 2
DYEAR=1956
DGENRE=blues
TTITLE0=La Chanson De Catherine
TTITLE1=Telegramme
TTITLE2=Je T'Ai Dans La Peau
TTITLE3=Au Bal De La Chance
TTITLE4=Monsieur Et Madame
TTITLE5=Notre Dame De Paris
TTITLE6=Bravo Pour Le Clown
TTITLE7=Jean Et Martine
TTITLE8=Pour Qu'elle Soit Jolie Ma Chanson
TTITLE9=Et Moi
TTITLE10=L'Effet Que Tu Me Fais
TTITLE11=Johnny, Tu N'es Pas Un Ange
TTITLE12=Les Amants De Venise
TTITLE13=La Goualante Du Pavre Jean
TTITLE14=Sous Le Ciel De Paris
TTITLE15=Enfin Le Printemps
TTITLE16=Serenade Du Pave
TTITLE17=Le Chemin Des Forains
TTITLE18=L'Accordeoniste
TTITLE19=C'Est A Hambourg
TTITLE20=Soudain Une Vallee
TTITLE21=L'Homme A La Moto
TTITLE22=Les Amants D'Un Jour
TTITLE23=Une Dame
TTITLE24=Et Pourtant
EXTD=
EXTT0=
EXTT1=
EXTT2=
EXTT3=
EXTT4=
EXTT5=
EXTT6=
EXTT7=
EXTT8=
EXTT9=
EXTT10=
EXTT11=
EXTT12=
EXTT13=
EXTT14=
EXTT15=
EXTT16=
EXTT17=
EXTT18=
EXTT19=
EXTT20=
EXTT21=
EXTT22=
EXTT23=
EXTT24=
PLAYORDER=
